HIERARCHY
ROOT Hips
{
	OFFSET	0	0	0
	CHANNELS 6  Xposition Yposition Zposition Xrotation Yrotation Zrotation
	JOINT Spine
	{
		OFFSET	0	6.81137	1.36784
		CHANNELS 3  Xrotation Yrotation Zrotation
		JOINT Spine1
		{
			OFFSET	0	11.6648	-2.083
			CHANNELS 3  Xrotation Yrotation Zrotation
			JOINT Spine2
			{
				OFFSET	0	8.84235	0.947767
				CHANNELS 3  Xrotation Yrotation Zrotation
				JOINT Spine3
				{
					OFFSET	0	10.5817	3.14534
					CHANNELS 3  Xrotation Yrotation Zrotation
					JOINT Spine4
					{
						OFFSET	0	15.6642	-1.60391
						CHANNELS 3  Xrotation Yrotation Zrotation
						JOINT Neck
						{
							OFFSET	0	7.47798	-5.23875
							CHANNELS 3  Xrotation Yrotation Zrotation
							JOINT Head
							{
								OFFSET	0	8.97775	-2.68707
								CHANNELS 3  Xrotation Yrotation Zrotation
								End Site
								{
									OFFSET	0	18.7262	-0.906107
								}
							}
						}
					}
					JOINT LeftShoulder
					{
						OFFSET	-4.49929	19.0387	-8.97775
						CHANNELS 3  Xrotation Yrotation Zrotation
						JOINT LeftArm
						{
							OFFSET	-9.81417	-2.68707	3.44739
							CHANNELS 3  Xrotation Yrotation Zrotation
							JOINT LeftForeArm
							{
								OFFSET	-33.0157	-1.50689	2.35663
								CHANNELS 3  Xrotation Yrotation Zrotation
								JOINT LeftHand
								{
									OFFSET	-25.9733	-1.7949	1.85395
									CHANNELS 3  Xrotation Yrotation Zrotation
									End Site
									{
										OFFSET	-9.47896	-0.655051	0.676554
									}
								}
							}
						}
					}
					JOINT RightShoulder
					{
						OFFSET	4.49929	19.0387	-8.97775
						CHANNELS 3  Xrotation Yrotation Zrotation
						JOINT RightArm
						{
							OFFSET	9.81417	-2.68707	3.44739
							CHANNELS 3  Xrotation Yrotation Zrotation
							JOINT RightForeArm
							{
								OFFSET	33.0157	-1.50689	2.35663
								CHANNELS 3  Xrotation Yrotation Zrotation
								JOINT RightHand
								{
									OFFSET	25.9733	-1.7949	1.85395
									CHANNELS 3  Xrotation Yrotation Zrotation
									End Site
									{
										OFFSET	9.47896	-0.655051	0.676554
									}
								}
							}
						}
					}
				}
			}
		}
	}
	JOINT LeftUpLeg
	{
		OFFSET	-9.2746	-3.40568	-0.68392
		CHANNELS 3  Xrotation Yrotation Zrotation
		JOINT LeftLeg
		{
			OFFSET	-2.10167	-41.1814	-0.643755
			CHANNELS 3  Xrotation Yrotation Zrotation
			JOINT LeftFoot
			{
				OFFSET	-2.05436	-37.8685	3.25669
				CHANNELS 3  Xrotation Yrotation Zrotation
				JOINT LeftToeBase
				{
					OFFSET	0	-4.68304	-12.4382
					CHANNELS 3  Xrotation Yrotation Zrotation
					End Site
					{
						OFFSET	0	-1.87322	-7.49286
					}
				}
			}
		}
	}
	JOINT RightUpLeg
	{
		OFFSET	9.2746	-3.40568	-0.68392
		CHANNELS 3  Xrotation Yrotation Zrotation
		JOINT RightLeg
		{
			OFFSET	2.10167	-41.1814	-0.643755
			CHANNELS 3  Xrotation Yrotation Zrotation
			JOINT RightFoot
			{
				OFFSET	2.05436	-37.8685	3.25669
				CHANNELS 3  Xrotation Yrotation Zrotation
				JOINT RightToeBase
				{
					OFFSET	0	-4.68304	-12.4382
					CHANNELS 3  Xrotation Yrotation Zrotation
					End Site
					{
						OFFSET	0	-1.87322	-7.49286
					}
				}
			}
		}
	}
}
MOTION
Frames: 12
Frame Time: 0.020409
 0 -8.14858 3.02214 -0 0 -0 -0 0 -0 -0 0 -0 -0 0 -0 -0 0 -0 -0 0 -0 -0 0 -0 -0 0 -0 -0 0 -0 -0 0 -0 -0 0 -0 -0 0 -0 -0 0 -0 -0 0 -0 -0 0 -0 -0 0 -0 -0 0 -0 -0 0 -0 -0 0 -0 -0 0 -0 -0 0 -0 -0 0 -0 -0 0 -0 -0 0 -0
 -42.58 87.1117 -279.268 145.521 -59.6222 137.895 1.71377e-05 -0.000680033 1.44362 169.25 -179.999 -177.594 168.801 -179.996 -177.594 171.486 -179.999 -178.556 179.561 -179.996 -179.519 8.83399 2.20567 4.68083 2.69737 -2.6702 1.37485 1.13055 -17.3657 2.41865 36.5476 25.3673 67.3234 162.991 -65.3822 162.761 -0 -5.88775 13.5372 1.38955 -23.0048 -1.92416 17.9829 2.31645 -80.3427 7.01088 15.5187 -0.442718 -0 -17.3132 -18.7139 174.595 -165.417 -157.752 160.088 -165.499 -179.745 9.62595 0.0680337 -6.10682 3.54876 0 0 168.845 175.886 -172.334 147.54 -162.147 179.732 18.9384 0.0676138 9.88534 0.778548 0 0
 -41.5121 87.2358 -278.838 145.079 -60.9588 137.726 0.000351439 -0.0133923 1.5032 169.104 -179.973 -177.495 168.732 -179.92 -177.495 171.612 -179.987 -178.497 178.988 -179.991 -179.499 7.27459 3.36543 5.55857 2.24637 -1.70063 1.6768 0.586284 -16.2717 1.24953 34.9459 25.6228 67.3195 162.944 -63.9459 162.94 -0 -6.5453 13.5724 1.5796 -23.0195 -2.18699 16.8453 2.72158 -79.7864 6.6326 14.6821 -0.18164 -0 -17.7944 -18.6807 174.148 -164.781 -158.812 159.94 -165.155 179.773 9.44079 0.00314461 -5.99766 3.55846 0 0 169.239 176.632 -173.757 148.419 -162.719 179.809 18.7923 0.0083902 9.36112 0.776627 0 0
 -42.836 87.3707 -278.414 143.783 -58.3263 137.046 0.000377445 -0.0152224 1.42038 168.999 -179.97 -177.633 168.667 -179.909 -177.633 171.664 -179.985 -178.58 178.668 -179.989 -179.527 6.4825 3.67646 5.2604 2.00085 -0.667311 1.62546 0.972991 -17.0626 2.07944 33.4604 25.4722 68.7064 162.386 -63.5846 162.45 -0 -7.07294 13.5633 1.48699 -21.3216 -2.13153 17.2423 3.3134 -80.2188 6.55232 15.013 -0.217636 -0 -18.2389 -18.8067 173.271 -164.208 -159.647 160.193 -164.743 -179.906 8.49865 0.0319789 -5.89822 3.56808 0 0 169.448 176.829 -174.747 148.484 -163.779 -179.788 17.878 0.0316088 8.8322 0.772111 0 0
 -42.7619 87.5613 -278.101 145.062 -56.8478 139.255 0.000329118 -0.014849 1.26971 168.919 -179.97 -177.884 168.623 -179.911 -177.884 171.72 -179.985 -178.73 178.388 -179.988 -179.577 5.84556 3.56443 3.9588 1.78454 0.880554 1.30038 1.37141 -17.1489 2.93238 33.9871 26.8988 69.9088 161.488 -64.1731 161.396 -0 -7.43589 13.2632 1.40449 -20.6151 -2.04129 17.444 3.81037 -80.5888 6.40746 15.1901 -0.0211896 -0 -18.5177 -18.6308 172.407 -163.508 -160.465 161.022 -164.805 179.968 8.34826 0.0807926 -5.82845 3.57883 0 0 169.42 176.856 -175.234 148.72 -164.665 -179.74 16.7281 -0.0127136 8.26589 0.768231 0 0
 -43.7193 72.6004 -275.349 148.77 -80.063 140.791 179.999 179.959 -178.624 178.307 179.918 -177.707 178.321 179.755 -177.707 178.933 179.959 -178.624 179.296 -179.994 -179.541 179.594 -179.514 179.254 179.879 -179.941 179.777 0.442537 0.937949 0.845957 35.4488 29.9379 72.6158 160.228 -65.2088 159.682 -0 -7.65239 12.7436 0.496337 -0.0531676 -0.956608 17.0847 4.55226 -80.9588 6.05836 14.8978 -0.0954986 -0 -18.7852 -18.1763 166.103 164.712 -164.559 175.98 -179.433 -177.814 58.9302 -3.58685 -1.05881 180 180 -180 16.887 7.85846 -5.64679 132.222 -179.535 178.912 23.4501 4.99066 -13.7033 180 180 -180
 -43.622 81.8156 -277.121 170.214 -66.9955 167.41 7.54935e-05 -0.0156259 0.276811 178.266 -179.969 -179.539 178.302 -179.906 -179.539 178.952 -179.984 -179.723 179.168 -179.999 -179.908 179.271 -179.584 179.04 179.783 179.729 179.742 179.912 -179.663 179.83 38.0127 30.4384 74.3252 158.804 -66.6587 159.889 -0 -7.6237 12.974 0.30813 -2.12309 -0.582306 13.3081 4.2779 -81.6077 6.2027 13.8932 -0.389895 -0 -18.005 -18.3764 163.26 165.628 -164.575 171.872 -179.634 179.441 47.1019 -0.42747 -1.26446 0.00904202 0 0 19.9953 9.03236 -9.42166 131.768 178.822 178.451 34.2023 1.95882 -12.0413 0.0116794 0 0
 -41.5485 84.4488 -278.067 171.088 -56.5092 167.675 0.000686528 -0.0673774 0.583783 177.787 -179.865 -179.027 177.923 -179.596 -179.027 178.917 -179.933 -179.416 178.344 -179.994 -179.805 177.373 -179.809 179.035 179.213 179.396 179.774 0.565127 -0.307576 1.09276 37.1108 32.4797 76.206 157.735 -67.4807 158.043 -0 -7.92447 12.4729 179.095 -177.613 -178.295 8.825 5.12071 -79.4529 5.23907 10.32 0.0650738 -0 -19.7305 -18.1814 162.219 165.806 -160.996 169.771 -179.902 179.326 29.2722 0.112964 -1.45774 0.0138584 0 0 20.0669 10.7286 -10.2057 134.948 179.805 179.943 32.7294 1.25055 -9.82829 0.00956326 0 0
 -41.1893 85.6396 -278.204 171.064 -52.1156 167.131 0.000794917 -0.0539163 0.844682 177.41 -179.892 -178.592 177.643 -179.677 -178.592 178.955 -179.946 -179.155 177.542 -179.988 -179.719 175.447 179.237 -179.699 178.634 178.916 -179.82 0.705824 0.413051 1.35599 35.287 33.8264 76.4115 157.071 -68.4835 156.89 -0 -8.2911 12.6358 179.861 -177.135 -179.739 8.93856 6.00993 -78.4196 5.13359 9.71243 0.586833 -0 -19.8927 -18.3263 162.774 166.693 -160.181 168.069 -178.951 179.773 16.0591 0.0916786 -1.76102 0.0197161 0 0 16.9145 12.0607 -8.90018 137.251 -179.036 -179.88 27.8426 0.290363 -7.81777 0.0044181 0 0
 -41.5534 85.8059 -278.214 169.593 -50.9371 165.32 0.000826087 -0.0471918 1.00285 176.934 -179.906 -178.329 177.228 -179.717 -178.329 178.82 -179.953 -178.997 176.959 -179.982 -179.666 174.228 178.434 -178.614 178.269 178.401 -179.469 0.898695 0.766178 1.72103 34.0354 34.5106 76.2605 156.654 -69.0731 156.49 -0 -8.75791 12.8754 0.384137 -2.48729 -0.723328 9.04725 6.93665 -77.6347 5.10905 9.04275 0.571648 -0 -20.1713 -18.4979 163.676 167.485 -160.212 166.737 -177.887 179.837 14.6992 0.177774 -2.11759 0.0427685 0 0 15.8999 13.5415 -8.51645 139.55 -178.376 -179.759 23.3936 0.145585 -6.30031 179.999 180 -180
 -42.1126 85.8509 -278.743 169.53 -51.088 164.696 0.000567147 -0.0279855 1.16098 176.523 -179.944 -178.065 176.835 -179.832 -178.065 178.605 -179.972 -178.839 176.686 -179.978 -179.614 173.817 177.56 -177.269 178.152 177.963 -179.055 1.20322 0.392966 2.31264 30.9971 35.2566 76.7971 155.089 -70.9431 154.632 -0 -9.06716 13.2855 1.01925 -1.90295 -1.93089 9.55943 7.8299 -76.8992 5.1061 8.64131 0.667099 -0 -20.3922 -18.5602 165.211 167.975 -159.864 165.353 -176.375 179.822 14.2747 0.255543 -2.35899 0.0617966 0 0 16.0541 15.8568 -8.52591 140.595 -177.541 -179.389 21.7782 0.0742777 -4.98212 179.999 180 -180
 -41.5039 86.1198 -278.835 170.053 -45.0517 165.055 0.000803272 -0.0366598 1.25524 176.131 -179.927 -177.908 176.427 -179.78 -177.908 178.291 -179.963 -178.745 176.677 -179.976 -179.582 174.134 175.989 -175.853 178.255 176.415 -178.521 1.33728 -0.935335 2.60128 30.5379 36.1506 78.8706 153.473 -72.6675 152.976 -0 -9.37844 13.933 1.36071 -2.78401 -2.55583 11.6334 8.77966 -77.0609 5.28068 9.19496 0.427615 -0 -20.4708 -18.6348 166.928 168.344 -159.285 164.1 -174.298 -179.73 11.8486 0.0567895 -2.41329 0.0724818 0 0 15.1502 17.781 -8.13454 140.172 -176.261 -179.54 19.8339 0.111809 -3.89789 0.00204445 0 0
